<mxfile host="app.diagrams.net" modified="2020-03-22T11:00:09.855Z" agent="Mozilla/5.0 (X11; Linux x86_64) AppleWebKit/537.36 (KHTML, like Gecko) Chrome/80.0.3987.87 Safari/537.36" etag="jJhXrPz-WVH6t58kE4Zh" version="12.8.8" type="github">
  <diagram id="TmXbN3po548GBnlmAwbr" name="Page-1">
    <mxGraphModel dx="1618" dy="859" grid="1" gridSize="10" guides="1" tooltips="1" connect="1" arrows="1" fold="1" page="1" pageScale="1" pageWidth="850" pageHeight="1100" math="0" shadow="0">
      <root>
        <mxCell id="0" />
        <mxCell id="1" parent="0" />
        <mxCell id="7OuSPlXaUR59k3nLAixx-25" value="" style="group" vertex="1" connectable="0" parent="1">
          <mxGeometry x="90" y="450" width="130" height="68" as="geometry" />
        </mxCell>
        <mxCell id="7OuSPlXaUR59k3nLAixx-2" value="&lt;b&gt;BÃ¤ckerei&lt;/b&gt;" style="ellipse;whiteSpace=wrap;html=1;strokeColor=#d6b656;fillColor=#fff2cc;" vertex="1" parent="7OuSPlXaUR59k3nLAixx-25">
          <mxGeometry y="8" width="130" height="60" as="geometry" />
        </mxCell>
        <mxCell id="7OuSPlXaUR59k3nLAixx-3" value="" style="shape=umlActor;verticalLabelPosition=bottom;labelBackgroundColor=#ffffff;verticalAlign=top;html=1;outlineConnect=0;strokeColor=#000000;fillColor=none;" vertex="1" parent="7OuSPlXaUR59k3nLAixx-25">
          <mxGeometry x="20" y="28" width="10" height="30" as="geometry" />
        </mxCell>
        <mxCell id="7OuSPlXaUR59k3nLAixx-5" value="" style="shape=umlActor;verticalLabelPosition=bottom;labelBackgroundColor=#ffffff;verticalAlign=top;html=1;outlineConnect=0;strokeColor=#000000;fillColor=none;" vertex="1" parent="7OuSPlXaUR59k3nLAixx-25">
          <mxGeometry x="56" width="10" height="30" as="geometry" />
        </mxCell>
        <mxCell id="7OuSPlXaUR59k3nLAixx-6" value="" style="shape=umlActor;verticalLabelPosition=bottom;labelBackgroundColor=#ffffff;verticalAlign=top;html=1;outlineConnect=0;strokeColor=#000000;fillColor=none;" vertex="1" parent="7OuSPlXaUR59k3nLAixx-25">
          <mxGeometry x="100" y="19" width="10" height="30" as="geometry" />
        </mxCell>
        <mxCell id="7OuSPlXaUR59k3nLAixx-24" value="" style="group" vertex="1" connectable="0" parent="1">
          <mxGeometry x="-29" y="310" width="250" height="130" as="geometry" />
        </mxCell>
        <mxCell id="7OuSPlXaUR59k3nLAixx-20" value="&lt;b&gt;Stadtgarten&lt;/b&gt;" style="ellipse;whiteSpace=wrap;html=1;strokeColor=#82b366;fillColor=#E3F7E2;" vertex="1" parent="7OuSPlXaUR59k3nLAixx-24">
          <mxGeometry width="250" height="130" as="geometry" />
        </mxCell>
        <mxCell id="7OuSPlXaUR59k3nLAixx-21" value="" style="shape=umlActor;verticalLabelPosition=bottom;labelBackgroundColor=#ffffff;verticalAlign=top;html=1;outlineConnect=0;strokeColor=#000000;fillColor=none;" vertex="1" parent="7OuSPlXaUR59k3nLAixx-24">
          <mxGeometry x="64" y="29" width="10" height="30" as="geometry" />
        </mxCell>
        <mxCell id="7OuSPlXaUR59k3nLAixx-22" value="" style="shape=umlActor;verticalLabelPosition=bottom;labelBackgroundColor=#ffffff;verticalAlign=top;html=1;outlineConnect=0;strokeColor=#000000;fillColor=none;" vertex="1" parent="7OuSPlXaUR59k3nLAixx-24">
          <mxGeometry x="190" y="30" width="10" height="30" as="geometry" />
        </mxCell>
        <mxCell id="7OuSPlXaUR59k3nLAixx-23" value="" style="shape=umlActor;verticalLabelPosition=bottom;labelBackgroundColor=#ffffff;verticalAlign=top;html=1;outlineConnect=0;strokeColor=#000000;fillColor=none;" vertex="1" parent="7OuSPlXaUR59k3nLAixx-24">
          <mxGeometry x="29" y="58" width="10" height="30" as="geometry" />
        </mxCell>
        <mxCell id="7OuSPlXaUR59k3nLAixx-4" value="" style="shape=umlActor;verticalLabelPosition=bottom;labelBackgroundColor=#ffffff;verticalAlign=top;html=1;outlineConnect=0;strokeColor=#000000;fillColor=none;" vertex="1" parent="7OuSPlXaUR59k3nLAixx-24">
          <mxGeometry x="170" y="75" width="10" height="30" as="geometry" />
        </mxCell>
        <mxCell id="7OuSPlXaUR59k3nLAixx-27" value="" style="shape=umlActor;verticalLabelPosition=bottom;labelBackgroundColor=#ffffff;verticalAlign=top;html=1;outlineConnect=0;strokeColor=#000000;fillColor=none;" vertex="1" parent="7OuSPlXaUR59k3nLAixx-24">
          <mxGeometry x="130" y="10" width="10" height="30" as="geometry" />
        </mxCell>
        <mxCell id="7OuSPlXaUR59k3nLAixx-28" value="" style="group" vertex="1" connectable="0" parent="1">
          <mxGeometry x="40" y="190" width="200" height="100" as="geometry" />
        </mxCell>
        <mxCell id="7OuSPlXaUR59k3nLAixx-8" value="&lt;b&gt;Supermarkt&lt;/b&gt;" style="ellipse;whiteSpace=wrap;html=1;strokeColor=#b85450;fillColor=#f8cecc;" vertex="1" parent="7OuSPlXaUR59k3nLAixx-28">
          <mxGeometry width="200" height="100" as="geometry" />
        </mxCell>
        <mxCell id="7OuSPlXaUR59k3nLAixx-9" value="" style="shape=umlActor;verticalLabelPosition=bottom;labelBackgroundColor=#ffffff;verticalAlign=top;html=1;outlineConnect=0;strokeColor=#000000;fillColor=none;" vertex="1" parent="7OuSPlXaUR59k3nLAixx-28">
          <mxGeometry x="26" y="32" width="10" height="30" as="geometry" />
        </mxCell>
        <mxCell id="7OuSPlXaUR59k3nLAixx-10" value="" style="shape=umlActor;verticalLabelPosition=bottom;labelBackgroundColor=#ffffff;verticalAlign=top;html=1;outlineConnect=0;strokeColor=#000000;fillColor=none;" vertex="1" parent="7OuSPlXaUR59k3nLAixx-28">
          <mxGeometry x="42" y="48" width="10" height="30" as="geometry" />
        </mxCell>
        <mxCell id="7OuSPlXaUR59k3nLAixx-11" value="" style="shape=umlActor;verticalLabelPosition=bottom;labelBackgroundColor=#ffffff;verticalAlign=top;html=1;outlineConnect=0;strokeColor=#000000;fillColor=none;" vertex="1" parent="7OuSPlXaUR59k3nLAixx-28">
          <mxGeometry x="66" y="2" width="10" height="30" as="geometry" />
        </mxCell>
        <mxCell id="7OuSPlXaUR59k3nLAixx-12" value="" style="shape=umlActor;verticalLabelPosition=bottom;labelBackgroundColor=#ffffff;verticalAlign=top;html=1;outlineConnect=0;strokeColor=#000000;fillColor=none;" vertex="1" parent="7OuSPlXaUR59k3nLAixx-28">
          <mxGeometry x="48" y="18" width="10" height="30" as="geometry" />
        </mxCell>
        <mxCell id="7OuSPlXaUR59k3nLAixx-13" value="" style="shape=umlActor;verticalLabelPosition=bottom;labelBackgroundColor=#ffffff;verticalAlign=top;html=1;outlineConnect=0;strokeColor=#000000;fillColor=none;" vertex="1" parent="7OuSPlXaUR59k3nLAixx-28">
          <mxGeometry x="91" y="12" width="10" height="30" as="geometry" />
        </mxCell>
        <mxCell id="7OuSPlXaUR59k3nLAixx-14" value="" style="shape=umlActor;verticalLabelPosition=bottom;labelBackgroundColor=#ffffff;verticalAlign=top;html=1;outlineConnect=0;strokeColor=#000000;fillColor=none;" vertex="1" parent="7OuSPlXaUR59k3nLAixx-28">
          <mxGeometry x="151" y="35" width="10" height="30" as="geometry" />
        </mxCell>
        <mxCell id="7OuSPlXaUR59k3nLAixx-15" value="" style="shape=umlActor;verticalLabelPosition=bottom;labelBackgroundColor=#ffffff;verticalAlign=top;html=1;outlineConnect=0;strokeColor=#000000;fillColor=none;" vertex="1" parent="7OuSPlXaUR59k3nLAixx-28">
          <mxGeometry x="136" y="2" width="10" height="30" as="geometry" />
        </mxCell>
        <mxCell id="7OuSPlXaUR59k3nLAixx-16" value="" style="shape=umlActor;verticalLabelPosition=bottom;labelBackgroundColor=#ffffff;verticalAlign=top;html=1;outlineConnect=0;strokeColor=#000000;fillColor=none;" vertex="1" parent="7OuSPlXaUR59k3nLAixx-28">
          <mxGeometry x="136" y="52" width="10" height="30" as="geometry" />
        </mxCell>
        <mxCell id="7OuSPlXaUR59k3nLAixx-17" value="" style="shape=umlActor;verticalLabelPosition=bottom;labelBackgroundColor=#ffffff;verticalAlign=top;html=1;outlineConnect=0;strokeColor=#000000;fillColor=none;" vertex="1" parent="7OuSPlXaUR59k3nLAixx-28">
          <mxGeometry x="76" y="22" width="10" height="30" as="geometry" />
        </mxCell>
        <mxCell id="7OuSPlXaUR59k3nLAixx-18" value="" style="shape=umlActor;verticalLabelPosition=bottom;labelBackgroundColor=#ffffff;verticalAlign=top;html=1;outlineConnect=0;strokeColor=#000000;fillColor=none;" vertex="1" parent="7OuSPlXaUR59k3nLAixx-28">
          <mxGeometry x="111" y="12" width="10" height="30" as="geometry" />
        </mxCell>
        <mxCell id="7OuSPlXaUR59k3nLAixx-30" value="" style="shape=link;html=1;dashed=1;" edge="1" parent="1">
          <mxGeometry width="50" height="50" relative="1" as="geometry">
            <mxPoint x="-40" y="540" as="sourcePoint" />
            <mxPoint x="-40" y="160" as="targetPoint" />
          </mxGeometry>
        </mxCell>
        <mxCell id="7OuSPlXaUR59k3nLAixx-37" value="" style="shape=link;html=1;dashed=1;" edge="1" parent="1">
          <mxGeometry width="50" height="50" relative="1" as="geometry">
            <mxPoint x="280" y="540" as="sourcePoint" />
            <mxPoint x="280" y="160" as="targetPoint" />
          </mxGeometry>
        </mxCell>
        <mxCell id="7OuSPlXaUR59k3nLAixx-39" value="" style="endArrow=none;dashed=1;html=1;entryX=0.01;entryY=0.01;entryDx=0;entryDy=0;entryPerimeter=0;" edge="1" parent="1" target="7OuSPlXaUR59k3nLAixx-29">
          <mxGeometry width="50" height="50" relative="1" as="geometry">
            <mxPoint x="-40" y="540" as="sourcePoint" />
            <mxPoint x="120" y="400" as="targetPoint" />
          </mxGeometry>
        </mxCell>
        <mxCell id="7OuSPlXaUR59k3nLAixx-40" value="" style="endArrow=none;dashed=1;html=1;exitX=0.99;exitY=0.01;exitDx=0;exitDy=0;exitPerimeter=0;" edge="1" parent="1" source="7OuSPlXaUR59k3nLAixx-29">
          <mxGeometry width="50" height="50" relative="1" as="geometry">
            <mxPoint x="70" y="450" as="sourcePoint" />
            <mxPoint x="270" y="540" as="targetPoint" />
          </mxGeometry>
        </mxCell>
        <mxCell id="7OuSPlXaUR59k3nLAixx-29" value="" style="aspect=fixed;pointerEvents=1;shadow=0;dashed=0;html=1;strokeColor=none;labelPosition=center;verticalLabelPosition=bottom;verticalAlign=top;align=center;fillColor=#00188D;shape=mxgraph.mscae.enterprise.android_phone" vertex="1" parent="1">
          <mxGeometry x="90" y="610" width="60" height="100" as="geometry" />
        </mxCell>
        <mxCell id="7OuSPlXaUR59k3nLAixx-31" value="&lt;font style=&quot;font-size: 13px&quot;&gt;&lt;b&gt;Stay or Go? &lt;u&gt;App&lt;/u&gt;&lt;/b&gt;&lt;/font&gt;" style="text;html=1;strokeColor=none;fillColor=none;align=center;verticalAlign=middle;whiteSpace=wrap;rounded=0;" vertex="1" parent="1">
          <mxGeometry x="80" y="580" width="80" height="20" as="geometry" />
        </mxCell>
        <mxCell id="7OuSPlXaUR59k3nLAixx-41" value="" style="shape=link;html=1;dashed=1;" edge="1" parent="1">
          <mxGeometry width="50" height="50" relative="1" as="geometry">
            <mxPoint x="280" y="540" as="sourcePoint" />
            <mxPoint x="-40" y="540" as="targetPoint" />
          </mxGeometry>
        </mxCell>
        <mxCell id="7OuSPlXaUR59k3nLAixx-42" value="" style="shape=link;html=1;dashed=1;" edge="1" parent="1" source="7OuSPlXaUR59k3nLAixx-38">
          <mxGeometry width="50" height="50" relative="1" as="geometry">
            <mxPoint x="280" y="160" as="sourcePoint" />
            <mxPoint x="-40" y="160" as="targetPoint" />
          </mxGeometry>
        </mxCell>
        <mxCell id="7OuSPlXaUR59k3nLAixx-44" value="" style="rounded=1;whiteSpace=wrap;html=1;arcSize=4;fillColor=#B8ECFC;strokeColor=#6c8ebf;" vertex="1" parent="1">
          <mxGeometry x="280" y="160" width="240" height="380" as="geometry" />
        </mxCell>
        <mxCell id="7OuSPlXaUR59k3nLAixx-38" value="&lt;u&gt;&lt;font style=&quot;font-size: 14px&quot;&gt;Ãberwachte Gebiete&lt;/font&gt;&lt;/u&gt;" style="text;html=1;strokeColor=none;fillColor=none;align=center;verticalAlign=middle;whiteSpace=wrap;rounded=0;" vertex="1" parent="1">
          <mxGeometry x="40" y="150" width="160" height="20" as="geometry" />
        </mxCell>
        <mxCell id="7OuSPlXaUR59k3nLAixx-45" value="" style="shape=link;html=1;dashed=1;" edge="1" parent="1" target="7OuSPlXaUR59k3nLAixx-38">
          <mxGeometry width="50" height="50" relative="1" as="geometry">
            <mxPoint x="280" y="160" as="sourcePoint" />
            <mxPoint x="-40" y="160" as="targetPoint" />
          </mxGeometry>
        </mxCell>
        <mxCell id="7OuSPlXaUR59k3nLAixx-46" value="&lt;span style=&quot;font-size: 14px&quot;&gt;&lt;b&gt;&lt;u&gt;Stay Or Go?&lt;br&gt;&lt;/u&gt;&lt;/b&gt;&lt;/span&gt;" style="text;html=1;strokeColor=none;fillColor=#B8ECFC;align=center;verticalAlign=middle;whiteSpace=wrap;rounded=0;" vertex="1" parent="1">
          <mxGeometry x="317.5" y="160" width="162.5" height="20" as="geometry" />
        </mxCell>
        <mxCell id="7OuSPlXaUR59k3nLAixx-47" value="&lt;b&gt;Nutzerverwaltung&lt;/b&gt;" style="ellipse;shape=cloud;whiteSpace=wrap;html=1;fillColor=#ffffff;" vertex="1" parent="1">
          <mxGeometry x="315" y="450" width="170" height="80" as="geometry" />
        </mxCell>
        <mxCell id="7OuSPlXaUR59k3nLAixx-49" value="&lt;b&gt;Gebietsverwaltung&lt;/b&gt;" style="ellipse;shape=cloud;whiteSpace=wrap;html=1;fillColor=#ffffff;" vertex="1" parent="1">
          <mxGeometry x="322.5" y="180" width="155" height="80" as="geometry" />
        </mxCell>
        <mxCell id="7OuSPlXaUR59k3nLAixx-50" value="" style="endArrow=classic;startArrow=classic;html=1;strokeColor=#88898A;strokeWidth=2;entryX=0.16;entryY=0.55;entryDx=0;entryDy=0;entryPerimeter=0;exitX=1;exitY=0.5;exitDx=0;exitDy=0;" edge="1" parent="1" source="7OuSPlXaUR59k3nLAixx-8" target="7OuSPlXaUR59k3nLAixx-49">
          <mxGeometry width="50" height="50" relative="1" as="geometry">
            <mxPoint x="280" y="410" as="sourcePoint" />
            <mxPoint x="330" y="360" as="targetPoint" />
          </mxGeometry>
        </mxCell>
        <mxCell id="7OuSPlXaUR59k3nLAixx-51" value="" style="endArrow=classic;startArrow=classic;html=1;strokeColor=#88898A;strokeWidth=2;entryX=0.16;entryY=0.55;entryDx=0;entryDy=0;entryPerimeter=0;exitX=1;exitY=0.5;exitDx=0;exitDy=0;" edge="1" parent="1" source="7OuSPlXaUR59k3nLAixx-20" target="7OuSPlXaUR59k3nLAixx-49">
          <mxGeometry width="50" height="50" relative="1" as="geometry">
            <mxPoint x="250" y="240" as="sourcePoint" />
            <mxPoint x="339.79999999999995" y="234" as="targetPoint" />
          </mxGeometry>
        </mxCell>
        <mxCell id="7OuSPlXaUR59k3nLAixx-52" value="" style="endArrow=classic;startArrow=classic;html=1;strokeColor=#88898A;strokeWidth=2;entryX=0.16;entryY=0.55;entryDx=0;entryDy=0;entryPerimeter=0;exitX=0.999;exitY=0.569;exitDx=0;exitDy=0;exitPerimeter=0;" edge="1" parent="1" source="7OuSPlXaUR59k3nLAixx-2" target="7OuSPlXaUR59k3nLAixx-49">
          <mxGeometry width="50" height="50" relative="1" as="geometry">
            <mxPoint x="260" y="250" as="sourcePoint" />
            <mxPoint x="349.79999999999995" y="244" as="targetPoint" />
          </mxGeometry>
        </mxCell>
        <mxCell id="7OuSPlXaUR59k3nLAixx-53" value="" style="verticalLabelPosition=bottom;html=1;verticalAlign=top;align=center;strokeColor=#000000;fillColor=#00BEF2;shape=mxgraph.azure.cloud_service;" vertex="1" parent="1">
          <mxGeometry x="305" y="280" width="175" height="140" as="geometry" />
        </mxCell>
        <mxCell id="7OuSPlXaUR59k3nLAixx-54" value="" style="endArrow=none;html=1;strokeColor=#0D0D0D;strokeWidth=4;entryX=0.55;entryY=0.95;entryDx=0;entryDy=0;entryPerimeter=0;exitX=0.588;exitY=0.054;exitDx=0;exitDy=0;exitPerimeter=0;" edge="1" parent="1" source="7OuSPlXaUR59k3nLAixx-53" target="7OuSPlXaUR59k3nLAixx-49">
          <mxGeometry width="50" height="50" relative="1" as="geometry">
            <mxPoint x="200" y="340" as="sourcePoint" />
            <mxPoint x="250" y="290" as="targetPoint" />
          </mxGeometry>
        </mxCell>
        <mxCell id="7OuSPlXaUR59k3nLAixx-55" value="" style="endArrow=none;html=1;strokeColor=#0D0D0D;strokeWidth=4;exitX=0.561;exitY=0.145;exitDx=0;exitDy=0;exitPerimeter=0;" edge="1" parent="1" source="7OuSPlXaUR59k3nLAixx-47">
          <mxGeometry width="50" height="50" relative="1" as="geometry">
            <mxPoint x="371.5" y="318.0000000000002" as="sourcePoint" />
            <mxPoint x="410" y="410" as="targetPoint" />
          </mxGeometry>
        </mxCell>
      </root>
    </mxGraphModel>
  </diagram>
</mxfile>
